<?xml version="1.0" encoding="UTF-8" standalone="no"?>
<!DOCTYPE svg PUBLIC "-//W3C//DTD SVG 1.1//EN"
 "http://www.w3.org/Graphics/SVG/1.1/DTD/svg11.dtd">
<!-- Generated by graphviz version 2.47.0 (20210316.0004)
 -->
<!-- Title: dependencies Pages: 1 -->
<svg width="583pt" height="211pt"
 viewBox="0.00 0.00 583.00 211.00" xmlns="http://www.w3.org/2000/svg" xmlns:xlink="http://www.w3.org/1999/xlink">
<g id="graph0" class="graph" transform="scale(1 1) rotate(0) translate(4 207)">
<title>dependencies</title>
<polygon fill="white" stroke="transparent" points="-4,4 -4,-207 579,-207 579,4 -4,4"/>
<text text-anchor="start" x="266.51" y="-42.4" font-family="Times-12" font-weight="bold" font-size="14.00">Legend</text>
<polygon fill="#ffffb3" stroke="transparent" points="53.5,-10 53.5,-30 73.5,-30 73.5,-10 53.5,-10"/>
<text text-anchor="start" x="77.13" y="-15.4" font-family="Times-12" font-size="14.00"> &#160;Declarations</text>
<polygon fill="#8dd3c7" stroke="transparent" points="166.5,-10 166.5,-30 186.5,-30 186.5,-10 166.5,-10"/>
<text text-anchor="start" x="190.23" y="-15.4" font-family="Times-12" font-size="14.00"> &#160;Module</text>
<polygon fill="#80b1d3" stroke="transparent" points="252.5,-10 252.5,-30 272.5,-30 272.5,-10 252.5,-10"/>
<text text-anchor="start" x="276.28" y="-15.4" font-family="Times-12" font-size="14.00"> &#160;Bootstrap</text>
<polygon fill="#fdb462" stroke="transparent" points="349.5,-10 349.5,-30 369.5,-30 369.5,-10 349.5,-10"/>
<text text-anchor="start" x="373.17" y="-15.4" font-family="Times-12" font-size="14.00"> &#160;Providers</text>
<polygon fill="#fb8072" stroke="transparent" points="445.5,-10 445.5,-30 465.5,-30 465.5,-10 445.5,-10"/>
<text text-anchor="start" x="469.23" y="-15.4" font-family="Times-12" font-size="14.00"> &#160;Exports</text>
<g id="clust1" class="cluster">
<title>cluster_PostModule</title>
<polygon fill="none" stroke="black" stroke-dasharray="1,5" points="8,-70 8,-195 567,-195 567,-70 8,-70"/>
</g>
<g id="clust6" class="cluster">
<title>cluster_PostModule_providers</title>
<polygon fill="none" stroke="black" points="16,-78 16,-130 559,-130 559,-78 16,-78"/>
</g>
<!-- FileService -->
<g id="node1" class="node">
<title>FileService</title>
<ellipse fill="#fdb462" stroke="black" cx="496" cy="-104" rx="55.03" ry="18"/>
<text text-anchor="middle" x="496" y="-99.8" font-family="Times,serif" font-size="14.00">FileService</text>
</g>
<!-- PostModule -->
<g id="node5" class="node">
<title>PostModule</title>
<polygon fill="#8dd3c7" stroke="black" points="336.67,-187 333.67,-191 312.67,-191 309.67,-187 253.33,-187 253.33,-151 336.67,-151 336.67,-187"/>
<text text-anchor="middle" x="295" y="-164.8" font-family="Times,serif" font-size="14.00">PostModule</text>
</g>
<!-- FileService&#45;&gt;PostModule -->
<g id="edge1" class="edge">
<title>FileService&#45;&gt;PostModule</title>
<path fill="none" stroke="black" d="M496,-122.11C496,-141.34 496,-169 496,-169 496,-169 347.14,-169 347.14,-169"/>
<polygon fill="black" stroke="black" points="347.14,-165.5 337.14,-169 347.14,-172.5 347.14,-165.5"/>
</g>
<!-- PostService -->
<g id="node2" class="node">
<title>PostService</title>
<ellipse fill="#fdb462" stroke="black" cx="366" cy="-104" rx="56.76" ry="18"/>
<text text-anchor="middle" x="366" y="-99.8" font-family="Times,serif" font-size="14.00">PostService</text>
</g>
<!-- PostService&#45;&gt;PostModule -->
<g id="edge2" class="edge">
<title>PostService&#45;&gt;PostModule</title>
<path fill="none" stroke="black" d="M323.1,-115.92C323.1,-115.92 323.1,-140.77 323.1,-140.77"/>
<polygon fill="black" stroke="black" points="319.6,-140.77 323.1,-150.77 326.6,-140.77 319.6,-140.77"/>
</g>
<!-- PrismaService -->
<g id="node3" class="node">
<title>PrismaService</title>
<ellipse fill="#fdb462" stroke="black" cx="225" cy="-104" rx="66.63" ry="18"/>
<text text-anchor="middle" x="225" y="-99.8" font-family="Times,serif" font-size="14.00">PrismaService</text>
</g>
<!-- PrismaService&#45;&gt;PostModule -->
<g id="edge3" class="edge">
<title>PrismaService&#45;&gt;PostModule</title>
<path fill="none" stroke="black" d="M272.49,-116.84C272.49,-116.84 272.49,-140.52 272.49,-140.52"/>
<polygon fill="black" stroke="black" points="268.99,-140.52 272.49,-150.52 275.99,-140.52 268.99,-140.52"/>
</g>
<!-- UserService -->
<g id="node4" class="node">
<title>UserService</title>
<ellipse fill="#fdb462" stroke="black" cx="82" cy="-104" rx="58.44" ry="18"/>
<text text-anchor="middle" x="82" y="-99.8" font-family="Times,serif" font-size="14.00">UserService</text>
</g>
<!-- UserService&#45;&gt;PostModule -->
<g id="edge4" class="edge">
<title>UserService&#45;&gt;PostModule</title>
<path fill="none" stroke="black" d="M82,-122.11C82,-141.34 82,-169 82,-169 82,-169 243.17,-169 243.17,-169"/>
<polygon fill="black" stroke="black" points="243.17,-172.5 253.17,-169 243.17,-165.5 243.17,-172.5"/>
</g>
</g>
</svg>
