<?xml version="1.0" encoding="UTF-8" standalone="no"?>
<!DOCTYPE svg PUBLIC "-//W3C//DTD SVG 1.1//EN"
 "http://www.w3.org/Graphics/SVG/1.1/DTD/svg11.dtd">
<!-- Generated by graphviz version 2.47.0 (20210316.0004)
 -->
<!-- Title: dependencies Pages: 1 -->
<svg width="504pt" height="211pt"
 viewBox="0.00 0.00 504.00 211.00" xmlns="http://www.w3.org/2000/svg" xmlns:xlink="http://www.w3.org/1999/xlink">
<g id="graph0" class="graph" transform="scale(1 1) rotate(0) translate(4 207)">
<title>dependencies</title>
<polygon fill="white" stroke="transparent" points="-4,4 -4,-207 500,-207 500,4 -4,4"/>
<text text-anchor="start" x="227.01" y="-42.4" font-family="Times-12" font-weight="bold" font-size="14.00">Legend</text>
<polygon fill="#ffffb3" stroke="transparent" points="14,-10 14,-30 34,-30 34,-10 14,-10"/>
<text text-anchor="start" x="37.63" y="-15.4" font-family="Times-12" font-size="14.00"> &#160;Declarations</text>
<polygon fill="#8dd3c7" stroke="transparent" points="127,-10 127,-30 147,-30 147,-10 127,-10"/>
<text text-anchor="start" x="150.73" y="-15.4" font-family="Times-12" font-size="14.00"> &#160;Module</text>
<polygon fill="#80b1d3" stroke="transparent" points="213,-10 213,-30 233,-30 233,-10 213,-10"/>
<text text-anchor="start" x="236.78" y="-15.4" font-family="Times-12" font-size="14.00"> &#160;Bootstrap</text>
<polygon fill="#fdb462" stroke="transparent" points="310,-10 310,-30 330,-30 330,-10 310,-10"/>
<text text-anchor="start" x="333.67" y="-15.4" font-family="Times-12" font-size="14.00"> &#160;Providers</text>
<polygon fill="#fb8072" stroke="transparent" points="406,-10 406,-30 426,-30 426,-10 406,-10"/>
<text text-anchor="start" x="429.73" y="-15.4" font-family="Times-12" font-size="14.00"> &#160;Exports</text>
<g id="clust1" class="cluster">
<title>cluster_RoomModule</title>
<polygon fill="none" stroke="black" stroke-dasharray="1,5" points="25.5,-70 25.5,-195 470.5,-195 470.5,-70 25.5,-70"/>
</g>
<g id="clust6" class="cluster">
<title>cluster_RoomModule_providers</title>
<polygon fill="none" stroke="black" points="33.5,-78 33.5,-130 462.5,-130 462.5,-78 33.5,-78"/>
</g>
<!-- PrismaService -->
<g id="node1" class="node">
<title>PrismaService</title>
<ellipse fill="#fdb462" stroke="black" cx="387.5" cy="-104" rx="66.63" ry="18"/>
<text text-anchor="middle" x="387.5" y="-99.8" font-family="Times,serif" font-size="14.00">PrismaService</text>
</g>
<!-- RoomModule -->
<g id="node4" class="node">
<title>RoomModule</title>
<polygon fill="#8dd3c7" stroke="black" points="286.28,-187 283.28,-191 262.28,-191 259.28,-187 192.72,-187 192.72,-151 286.28,-151 286.28,-187"/>
<text text-anchor="middle" x="239.5" y="-164.8" font-family="Times,serif" font-size="14.00">RoomModule</text>
</g>
<!-- PrismaService&#45;&gt;RoomModule -->
<g id="edge1" class="edge">
<title>PrismaService&#45;&gt;RoomModule</title>
<path fill="none" stroke="black" d="M387.5,-122.11C387.5,-141.34 387.5,-169 387.5,-169 387.5,-169 296.33,-169 296.33,-169"/>
<polygon fill="black" stroke="black" points="296.33,-165.5 286.33,-169 296.33,-172.5 296.33,-165.5"/>
</g>
<!-- RoomService -->
<g id="node2" class="node">
<title>RoomService</title>
<ellipse fill="#fdb462" stroke="black" cx="239.5" cy="-104" rx="63.7" ry="18"/>
<text text-anchor="middle" x="239.5" y="-99.8" font-family="Times,serif" font-size="14.00">RoomService</text>
</g>
<!-- RoomService&#45;&gt;RoomModule -->
<g id="edge2" class="edge">
<title>RoomService&#45;&gt;RoomModule</title>
<path fill="none" stroke="black" d="M239.5,-122.11C239.5,-122.11 239.5,-140.99 239.5,-140.99"/>
<polygon fill="black" stroke="black" points="236,-140.99 239.5,-150.99 243,-140.99 236,-140.99"/>
</g>
<!-- UserService -->
<g id="node3" class="node">
<title>UserService</title>
<ellipse fill="#fdb462" stroke="black" cx="99.5" cy="-104" rx="58.44" ry="18"/>
<text text-anchor="middle" x="99.5" y="-99.8" font-family="Times,serif" font-size="14.00">UserService</text>
</g>
<!-- UserService&#45;&gt;RoomModule -->
<g id="edge3" class="edge">
<title>UserService&#45;&gt;RoomModule</title>
<path fill="none" stroke="black" d="M99.5,-122.11C99.5,-141.34 99.5,-169 99.5,-169 99.5,-169 182.49,-169 182.49,-169"/>
<polygon fill="black" stroke="black" points="182.49,-172.5 192.49,-169 182.49,-165.5 182.49,-172.5"/>
</g>
</g>
</svg>
