<?xml version="1.0" encoding="UTF-8" standalone="no"?>
<!DOCTYPE svg PUBLIC "-//W3C//DTD SVG 1.1//EN"
 "http://www.w3.org/Graphics/SVG/1.1/DTD/svg11.dtd">
<!-- Generated by graphviz version 2.47.0 (20210316.0004)
 -->
<!-- Title: dependencies Pages: 1 -->
<svg width="603pt" height="211pt"
 viewBox="0.00 0.00 603.00 211.00" xmlns="http://www.w3.org/2000/svg" xmlns:xlink="http://www.w3.org/1999/xlink">
<g id="graph0" class="graph" transform="scale(1 1) rotate(0) translate(4 207)">
<title>dependencies</title>
<polygon fill="white" stroke="transparent" points="-4,4 -4,-207 599,-207 599,4 -4,4"/>
<text text-anchor="start" x="276.51" y="-42.4" font-family="Times-12" font-weight="bold" font-size="14.00">Legend</text>
<polygon fill="#ffffb3" stroke="transparent" points="63.5,-10 63.5,-30 83.5,-30 83.5,-10 63.5,-10"/>
<text text-anchor="start" x="87.13" y="-15.4" font-family="Times-12" font-size="14.00"> &#160;Declarations</text>
<polygon fill="#8dd3c7" stroke="transparent" points="176.5,-10 176.5,-30 196.5,-30 196.5,-10 176.5,-10"/>
<text text-anchor="start" x="200.23" y="-15.4" font-family="Times-12" font-size="14.00"> &#160;Module</text>
<polygon fill="#80b1d3" stroke="transparent" points="262.5,-10 262.5,-30 282.5,-30 282.5,-10 262.5,-10"/>
<text text-anchor="start" x="286.28" y="-15.4" font-family="Times-12" font-size="14.00"> &#160;Bootstrap</text>
<polygon fill="#fdb462" stroke="transparent" points="359.5,-10 359.5,-30 379.5,-30 379.5,-10 359.5,-10"/>
<text text-anchor="start" x="383.17" y="-15.4" font-family="Times-12" font-size="14.00"> &#160;Providers</text>
<polygon fill="#fb8072" stroke="transparent" points="455.5,-10 455.5,-30 475.5,-30 475.5,-10 455.5,-10"/>
<text text-anchor="start" x="479.23" y="-15.4" font-family="Times-12" font-size="14.00"> &#160;Exports</text>
<g id="clust1" class="cluster">
<title>cluster_ChatModule</title>
<polygon fill="none" stroke="black" stroke-dasharray="1,5" points="8,-70 8,-195 587,-195 587,-70 8,-70"/>
</g>
<g id="clust6" class="cluster">
<title>cluster_ChatModule_providers</title>
<polygon fill="none" stroke="black" points="16,-78 16,-130 579,-130 579,-78 16,-78"/>
</g>
<!-- ChatService -->
<g id="node1" class="node">
<title>ChatService</title>
<ellipse fill="#fdb462" stroke="black" cx="513" cy="-104" rx="58.46" ry="18"/>
<text text-anchor="middle" x="513" y="-99.8" font-family="Times,serif" font-size="14.00">ChatService</text>
</g>
<!-- ChatModule -->
<g id="node5" class="node">
<title>ChatModule</title>
<polygon fill="#8dd3c7" stroke="black" points="338.99,-187 335.99,-191 314.99,-191 311.99,-187 253.01,-187 253.01,-151 338.99,-151 338.99,-187"/>
<text text-anchor="middle" x="296" y="-164.8" font-family="Times,serif" font-size="14.00">ChatModule</text>
</g>
<!-- ChatService&#45;&gt;ChatModule -->
<g id="edge1" class="edge">
<title>ChatService&#45;&gt;ChatModule</title>
<path fill="none" stroke="black" d="M513,-122.11C513,-141.34 513,-169 513,-169 513,-169 349.13,-169 349.13,-169"/>
<polygon fill="black" stroke="black" points="349.13,-165.5 339.13,-169 349.13,-172.5 349.13,-165.5"/>
</g>
<!-- PrismaService -->
<g id="node2" class="node">
<title>PrismaService</title>
<ellipse fill="#fdb462" stroke="black" cx="370" cy="-104" rx="66.63" ry="18"/>
<text text-anchor="middle" x="370" y="-99.8" font-family="Times,serif" font-size="14.00">PrismaService</text>
</g>
<!-- PrismaService&#45;&gt;ChatModule -->
<g id="edge2" class="edge">
<title>PrismaService&#45;&gt;ChatModule</title>
<path fill="none" stroke="black" d="M321.09,-116.53C321.09,-116.53 321.09,-140.85 321.09,-140.85"/>
<polygon fill="black" stroke="black" points="317.59,-140.85 321.09,-150.85 324.59,-140.85 317.59,-140.85"/>
</g>
<!-- RoomService -->
<g id="node3" class="node">
<title>RoomService</title>
<ellipse fill="#fdb462" stroke="black" cx="222" cy="-104" rx="63.7" ry="18"/>
<text text-anchor="middle" x="222" y="-99.8" font-family="Times,serif" font-size="14.00">RoomService</text>
</g>
<!-- RoomService&#45;&gt;ChatModule -->
<g id="edge3" class="edge">
<title>RoomService&#45;&gt;ChatModule</title>
<path fill="none" stroke="black" d="M269.3,-116.23C269.3,-116.23 269.3,-140.68 269.3,-140.68"/>
<polygon fill="black" stroke="black" points="265.8,-140.68 269.3,-150.68 272.8,-140.68 265.8,-140.68"/>
</g>
<!-- UserService -->
<g id="node4" class="node">
<title>UserService</title>
<ellipse fill="#fdb462" stroke="black" cx="82" cy="-104" rx="58.44" ry="18"/>
<text text-anchor="middle" x="82" y="-99.8" font-family="Times,serif" font-size="14.00">UserService</text>
</g>
<!-- UserService&#45;&gt;ChatModule -->
<g id="edge4" class="edge">
<title>UserService&#45;&gt;ChatModule</title>
<path fill="none" stroke="black" d="M82,-122.11C82,-141.34 82,-169 82,-169 82,-169 242.95,-169 242.95,-169"/>
<polygon fill="black" stroke="black" points="242.95,-172.5 252.95,-169 242.95,-165.5 242.95,-172.5"/>
</g>
</g>
</svg>
