<?xml version="1.0" encoding="UTF-8" standalone="no"?>
<!DOCTYPE svg PUBLIC "-//W3C//DTD SVG 1.1//EN"
 "http://www.w3.org/Graphics/SVG/1.1/DTD/svg11.dtd">
<!-- Generated by graphviz version 2.47.0 (20210316.0004)
 -->
<!-- Title: dependencies Pages: 1 -->
<svg width="1063pt" height="211pt"
 viewBox="0.00 0.00 1063.00 211.00" xmlns="http://www.w3.org/2000/svg" xmlns:xlink="http://www.w3.org/1999/xlink">
<g id="graph0" class="graph" transform="scale(1 1) rotate(0) translate(4 207)">
<title>dependencies</title>
<polygon fill="white" stroke="transparent" points="-4,4 -4,-207 1059,-207 1059,4 -4,4"/>
<text text-anchor="start" x="506.51" y="-42.4" font-family="Times-12" font-weight="bold" font-size="14.00">Legend</text>
<polygon fill="#ffffb3" stroke="transparent" points="293.5,-10 293.5,-30 313.5,-30 313.5,-10 293.5,-10"/>
<text text-anchor="start" x="317.13" y="-15.4" font-family="Times-12" font-size="14.00"> &#160;Declarations</text>
<polygon fill="#8dd3c7" stroke="transparent" points="406.5,-10 406.5,-30 426.5,-30 426.5,-10 406.5,-10"/>
<text text-anchor="start" x="430.23" y="-15.4" font-family="Times-12" font-size="14.00"> &#160;Module</text>
<polygon fill="#80b1d3" stroke="transparent" points="492.5,-10 492.5,-30 512.5,-30 512.5,-10 492.5,-10"/>
<text text-anchor="start" x="516.28" y="-15.4" font-family="Times-12" font-size="14.00"> &#160;Bootstrap</text>
<polygon fill="#fdb462" stroke="transparent" points="589.5,-10 589.5,-30 609.5,-30 609.5,-10 589.5,-10"/>
<text text-anchor="start" x="613.17" y="-15.4" font-family="Times-12" font-size="14.00"> &#160;Providers</text>
<polygon fill="#fb8072" stroke="transparent" points="685.5,-10 685.5,-30 705.5,-30 705.5,-10 685.5,-10"/>
<text text-anchor="start" x="709.23" y="-15.4" font-family="Times-12" font-size="14.00"> &#160;Exports</text>
<g id="clust1" class="cluster">
<title>cluster_AppModule</title>
<polygon fill="none" stroke="black" stroke-dasharray="1,5" points="8,-70 8,-195 1047,-195 1047,-70 8,-70"/>
</g>
<g id="clust6" class="cluster">
<title>cluster_AppModule_providers</title>
<polygon fill="none" stroke="black" points="909,-78 909,-130 1039,-130 1039,-78 909,-78"/>
</g>
<g id="clust3" class="cluster">
<title>cluster_AppModule_imports</title>
<polygon fill="none" stroke="black" points="16,-78 16,-130 901,-130 901,-78 16,-78"/>
</g>
<!-- AuthModule -->
<g id="node1" class="node">
<title>AuthModule</title>
<polygon fill="#8dd3c7" stroke="black" points="892.55,-122 889.55,-126 868.55,-126 865.55,-122 805.45,-122 805.45,-86 892.55,-86 892.55,-122"/>
<text text-anchor="middle" x="849" y="-99.8" font-family="Times,serif" font-size="14.00">AuthModule</text>
</g>
<!-- AppModule -->
<g id="node9" class="node">
<title>AppModule</title>
<polygon fill="#8dd3c7" stroke="black" points="576.66,-187 573.66,-191 552.66,-191 549.66,-187 493.34,-187 493.34,-151 576.66,-151 576.66,-187"/>
<text text-anchor="middle" x="535" y="-164.8" font-family="Times,serif" font-size="14.00">AppModule</text>
</g>
<!-- AuthModule&#45;&gt;AppModule -->
<g id="edge1" class="edge">
<title>AuthModule&#45;&gt;AppModule</title>
<path fill="none" stroke="black" d="M849,-122.13C849,-142.57 849,-173 849,-173 849,-173 586.7,-173 586.7,-173"/>
<polygon fill="black" stroke="black" points="586.7,-169.5 576.7,-173 586.7,-176.5 586.7,-169.5"/>
</g>
<!-- ChatModule -->
<g id="node2" class="node">
<title>ChatModule</title>
<polygon fill="#8dd3c7" stroke="black" points="786.99,-122 783.99,-126 762.99,-126 759.99,-122 701.01,-122 701.01,-86 786.99,-86 786.99,-122"/>
<text text-anchor="middle" x="744" y="-99.8" font-family="Times,serif" font-size="14.00">ChatModule</text>
</g>
<!-- ChatModule&#45;&gt;AppModule -->
<g id="edge2" class="edge">
<title>ChatModule&#45;&gt;AppModule</title>
<path fill="none" stroke="black" d="M744,-122.27C744,-140.56 744,-166 744,-166 744,-166 586.79,-166 586.79,-166"/>
<polygon fill="black" stroke="black" points="586.79,-162.5 576.79,-166 586.79,-169.5 586.79,-162.5"/>
</g>
<!-- FileModule -->
<g id="node3" class="node">
<title>FileModule</title>
<polygon fill="#8dd3c7" stroke="black" points="682.83,-122 679.83,-126 658.83,-126 655.83,-122 601.17,-122 601.17,-86 682.83,-86 682.83,-122"/>
<text text-anchor="middle" x="642" y="-99.8" font-family="Times,serif" font-size="14.00">FileModule</text>
</g>
<!-- FileModule&#45;&gt;AppModule -->
<g id="edge3" class="edge">
<title>FileModule&#45;&gt;AppModule</title>
<path fill="none" stroke="black" d="M642,-122.01C642,-138.05 642,-159 642,-159 642,-159 586.68,-159 586.68,-159"/>
<polygon fill="black" stroke="black" points="586.68,-155.5 576.68,-159 586.68,-162.5 586.68,-155.5"/>
</g>
<!-- HealthModule -->
<g id="node4" class="node">
<title>HealthModule</title>
<polygon fill="#8dd3c7" stroke="black" points="583.37,-122 580.37,-126 559.37,-126 556.37,-122 486.63,-122 486.63,-86 583.37,-86 583.37,-122"/>
<text text-anchor="middle" x="535" y="-99.8" font-family="Times,serif" font-size="14.00">HealthModule</text>
</g>
<!-- HealthModule&#45;&gt;AppModule -->
<g id="edge4" class="edge">
<title>HealthModule&#45;&gt;AppModule</title>
<path fill="none" stroke="black" d="M535,-122.11C535,-122.11 535,-140.99 535,-140.99"/>
<polygon fill="black" stroke="black" points="531.5,-140.99 535,-150.99 538.5,-140.99 531.5,-140.99"/>
</g>
<!-- NotificationModule -->
<g id="node5" class="node">
<title>NotificationModule</title>
<polygon fill="#8dd3c7" stroke="black" points="468.7,-122 465.7,-126 444.7,-126 441.7,-122 341.3,-122 341.3,-86 468.7,-86 468.7,-122"/>
<text text-anchor="middle" x="405" y="-99.8" font-family="Times,serif" font-size="14.00">NotificationModule</text>
</g>
<!-- NotificationModule&#45;&gt;AppModule -->
<g id="edge5" class="edge">
<title>NotificationModule&#45;&gt;AppModule</title>
<path fill="none" stroke="black" d="M405,-122.01C405,-138.05 405,-159 405,-159 405,-159 483.15,-159 483.15,-159"/>
<polygon fill="black" stroke="black" points="483.15,-162.5 493.15,-159 483.15,-155.5 483.15,-162.5"/>
</g>
<!-- PostModule -->
<g id="node6" class="node">
<title>PostModule</title>
<polygon fill="#8dd3c7" stroke="black" points="323.67,-122 320.67,-126 299.67,-126 296.67,-122 240.33,-122 240.33,-86 323.67,-86 323.67,-122"/>
<text text-anchor="middle" x="282" y="-99.8" font-family="Times,serif" font-size="14.00">PostModule</text>
</g>
<!-- PostModule&#45;&gt;AppModule -->
<g id="edge6" class="edge">
<title>PostModule&#45;&gt;AppModule</title>
<path fill="none" stroke="black" d="M282,-122.27C282,-140.56 282,-166 282,-166 282,-166 483.22,-166 483.22,-166"/>
<polygon fill="black" stroke="black" points="483.22,-169.5 493.22,-166 483.22,-162.5 483.22,-169.5"/>
</g>
<!-- RoomModule -->
<g id="node7" class="node">
<title>RoomModule</title>
<polygon fill="#8dd3c7" stroke="black" points="221.78,-122 218.78,-126 197.78,-126 194.78,-122 128.22,-122 128.22,-86 221.78,-86 221.78,-122"/>
<text text-anchor="middle" x="175" y="-99.8" font-family="Times,serif" font-size="14.00">RoomModule</text>
</g>
<!-- RoomModule&#45;&gt;AppModule -->
<g id="edge7" class="edge">
<title>RoomModule&#45;&gt;AppModule</title>
<path fill="none" stroke="black" d="M175,-122.13C175,-142.57 175,-173 175,-173 175,-173 483,-173 483,-173"/>
<polygon fill="black" stroke="black" points="483,-176.5 493,-173 483,-169.5 483,-176.5"/>
</g>
<!-- UserModule -->
<g id="node8" class="node">
<title>UserModule</title>
<polygon fill="#8dd3c7" stroke="black" points="109.98,-122 106.98,-126 85.98,-126 82.98,-122 24.02,-122 24.02,-86 109.98,-86 109.98,-122"/>
<text text-anchor="middle" x="67" y="-99.8" font-family="Times,serif" font-size="14.00">UserModule</text>
</g>
<!-- UserModule&#45;&gt;AppModule -->
<g id="edge8" class="edge">
<title>UserModule&#45;&gt;AppModule</title>
<path fill="none" stroke="black" d="M67,-122.01C67,-144.49 67,-180 67,-180 67,-180 483.06,-180 483.06,-180"/>
<polygon fill="black" stroke="black" points="483.06,-183.5 493.06,-180 483.06,-176.5 483.06,-183.5"/>
</g>
<!-- AppService -->
<g id="node10" class="node">
<title>AppService</title>
<ellipse fill="#fdb462" stroke="black" cx="974" cy="-104" rx="56.74" ry="18"/>
<text text-anchor="middle" x="974" y="-99.8" font-family="Times,serif" font-size="14.00">AppService</text>
</g>
<!-- AppService&#45;&gt;AppModule -->
<g id="edge9" class="edge">
<title>AppService&#45;&gt;AppModule</title>
<path fill="none" stroke="black" d="M974,-122.01C974,-144.49 974,-180 974,-180 974,-180 586.7,-180 586.7,-180"/>
<polygon fill="black" stroke="black" points="586.7,-176.5 576.7,-180 586.7,-183.5 586.7,-176.5"/>
</g>
</g>
</svg>
