<?xml version="1.0" encoding="UTF-8" standalone="no"?>
<!DOCTYPE svg PUBLIC "-//W3C//DTD SVG 1.1//EN"
 "http://www.w3.org/Graphics/SVG/1.1/DTD/svg11.dtd">
<!-- Generated by graphviz version 2.47.0 (20210316.0004)
 -->
<!-- Title: dependencies Pages: 1 -->
<svg width="1453pt" height="352pt"
 viewBox="0.00 0.00 1453.00 352.00" xmlns="http://www.w3.org/2000/svg" xmlns:xlink="http://www.w3.org/1999/xlink">
<g id="graph0" class="graph" transform="scale(1 1) rotate(0) translate(4 348)">
<title>dependencies</title>
<polygon fill="white" stroke="transparent" points="-4,4 -4,-348 1449,-348 1449,4 -4,4"/>
<text text-anchor="start" x="701.51" y="-42.4" font-family="Times-12" font-weight="bold" font-size="14.00">Legend</text>
<polygon fill="#ffffb3" stroke="transparent" points="488.5,-10 488.5,-30 508.5,-30 508.5,-10 488.5,-10"/>
<text text-anchor="start" x="512.13" y="-15.4" font-family="Times-12" font-size="14.00"> &#160;Declarations</text>
<polygon fill="#8dd3c7" stroke="transparent" points="601.5,-10 601.5,-30 621.5,-30 621.5,-10 601.5,-10"/>
<text text-anchor="start" x="625.23" y="-15.4" font-family="Times-12" font-size="14.00"> &#160;Module</text>
<polygon fill="#80b1d3" stroke="transparent" points="687.5,-10 687.5,-30 707.5,-30 707.5,-10 687.5,-10"/>
<text text-anchor="start" x="711.28" y="-15.4" font-family="Times-12" font-size="14.00"> &#160;Bootstrap</text>
<polygon fill="#fdb462" stroke="transparent" points="784.5,-10 784.5,-30 804.5,-30 804.5,-10 784.5,-10"/>
<text text-anchor="start" x="808.17" y="-15.4" font-family="Times-12" font-size="14.00"> &#160;Providers</text>
<polygon fill="#fb8072" stroke="transparent" points="880.5,-10 880.5,-30 900.5,-30 900.5,-10 880.5,-10"/>
<text text-anchor="start" x="904.23" y="-15.4" font-family="Times-12" font-size="14.00"> &#160;Exports</text>
<g id="clust1" class="cluster">
<title>cluster_AppModule</title>
<polygon fill="none" stroke="black" stroke-dasharray="1,5" points="57,-146 57,-336 991,-336 991,-146 57,-146"/>
</g>
<g id="clust3" class="cluster">
<title>cluster_AppModule_imports</title>
<polygon fill="none" stroke="black" points="203,-154 203,-271 983,-271 983,-154 203,-154"/>
</g>
<g id="clust6" class="cluster">
<title>cluster_AppModule_providers</title>
<polygon fill="none" stroke="black" points="65,-219 65,-271 195,-271 195,-219 65,-219"/>
</g>
<g id="clust7" class="cluster">
<title>cluster_AuthModule</title>
<polygon fill="none" stroke="black" stroke-dasharray="1,5" points="8,-70 8,-138 445,-138 445,-70 8,-70"/>
</g>
<g id="clust12" class="cluster">
<title>cluster_AuthModule_providers</title>
<polygon fill="none" stroke="black" points="16,-78 16,-130 437,-130 437,-78 16,-78"/>
</g>
<g id="clust13" class="cluster">
<title>cluster_ChatModule</title>
<polygon fill="none" stroke="black" stroke-dasharray="1,5" points="453,-70 453,-138 747,-138 747,-70 453,-70"/>
</g>
<g id="clust18" class="cluster">
<title>cluster_ChatModule_providers</title>
<polygon fill="none" stroke="black" points="461,-78 461,-130 739,-130 739,-78 461,-78"/>
</g>
<g id="clust19" class="cluster">
<title>cluster_FileModule</title>
<polygon fill="none" stroke="black" stroke-dasharray="1,5" points="755,-70 755,-138 897,-138 897,-70 755,-70"/>
</g>
<g id="clust24" class="cluster">
<title>cluster_FileModule_providers</title>
<polygon fill="none" stroke="black" points="763,-78 763,-130 889,-130 889,-78 763,-78"/>
</g>
<g id="clust25" class="cluster">
<title>cluster_HealthModule</title>
<polygon fill="none" stroke="black" stroke-dasharray="1,5" points="905,-70 905,-138 1069,-138 1069,-70 905,-70"/>
</g>
<g id="clust30" class="cluster">
<title>cluster_HealthModule_providers</title>
<polygon fill="none" stroke="black" points="913,-78 913,-130 1061,-130 1061,-78 913,-78"/>
</g>
<g id="clust31" class="cluster">
<title>cluster_NotificationModule</title>
<polygon fill="none" stroke="black" stroke-dasharray="1,5" points="1077,-70 1077,-138 1283,-138 1283,-70 1077,-70"/>
</g>
<g id="clust36" class="cluster">
<title>cluster_NotificationModule_providers</title>
<polygon fill="none" stroke="black" points="1085,-78 1085,-130 1275,-130 1275,-78 1085,-78"/>
</g>
<g id="clust37" class="cluster">
<title>cluster_PostModule</title>
<polygon fill="none" stroke="black" stroke-dasharray="1,5" points="1291,-70 1291,-138 1437,-138 1437,-70 1291,-70"/>
</g>
<g id="clust42" class="cluster">
<title>cluster_PostModule_providers</title>
<polygon fill="none" stroke="black" points="1299,-78 1299,-130 1429,-130 1429,-78 1299,-78"/>
</g>
<!-- AuthModule -->
<g id="node1" class="node">
<title>AuthModule</title>
<polygon fill="#8dd3c7" stroke="black" points="298.55,-263 295.55,-267 274.55,-267 271.55,-263 211.45,-263 211.45,-227 298.55,-227 298.55,-263"/>
<text text-anchor="middle" x="255" y="-240.8" font-family="Times,serif" font-size="14.00">AuthModule</text>
</g>
<!-- AppModule -->
<g id="node9" class="node">
<title>AppModule</title>
<polygon fill="#8dd3c7" stroke="black" points="509.66,-328 506.66,-332 485.66,-332 482.66,-328 426.34,-328 426.34,-292 509.66,-292 509.66,-328"/>
<text text-anchor="middle" x="468" y="-305.8" font-family="Times,serif" font-size="14.00">AppModule</text>
</g>
<!-- AuthModule&#45;&gt;AppModule -->
<g id="edge1" class="edge">
<title>AuthModule&#45;&gt;AppModule</title>
<path fill="none" stroke="black" d="M298.77,-251C357.48,-251 454.45,-251 454.45,-251 454.45,-251 454.45,-281.98 454.45,-281.98"/>
<polygon fill="black" stroke="black" points="450.95,-281.98 454.45,-291.98 457.95,-281.98 450.95,-281.98"/>
</g>
<!-- ChatModule -->
<g id="node2" class="node">
<title>ChatModule</title>
<polygon fill="#8dd3c7" stroke="black" points="612.99,-198 609.99,-202 588.99,-202 585.99,-198 527.01,-198 527.01,-162 612.99,-162 612.99,-198"/>
<text text-anchor="middle" x="570" y="-175.8" font-family="Times,serif" font-size="14.00">ChatModule</text>
</g>
<!-- ChatModule&#45;&gt;AppModule -->
<g id="edge2" class="edge">
<title>ChatModule&#45;&gt;AppModule</title>
<path fill="none" stroke="black" d="M570,-198.23C570,-231.8 570,-300 570,-300 570,-300 519.78,-300 519.78,-300"/>
<polygon fill="black" stroke="black" points="519.78,-296.5 509.78,-300 519.78,-303.5 519.78,-296.5"/>
</g>
<!-- FileModule -->
<g id="node3" class="node">
<title>FileModule</title>
<polygon fill="#8dd3c7" stroke="black" points="508.83,-198 505.83,-202 484.83,-202 481.83,-198 427.17,-198 427.17,-162 508.83,-162 508.83,-198"/>
<text text-anchor="middle" x="468" y="-175.8" font-family="Times,serif" font-size="14.00">FileModule</text>
</g>
<!-- FileModule&#45;&gt;AppModule -->
<g id="edge3" class="edge">
<title>FileModule&#45;&gt;AppModule</title>
<path fill="none" stroke="black" d="M481.55,-198.08C481.55,-198.08 481.55,-281.66 481.55,-281.66"/>
<polygon fill="black" stroke="black" points="478.05,-281.66 481.55,-291.66 485.05,-281.66 478.05,-281.66"/>
</g>
<!-- HealthModule -->
<g id="node4" class="node">
<title>HealthModule</title>
<polygon fill="#8dd3c7" stroke="black" points="829.37,-198 826.37,-202 805.37,-202 802.37,-198 732.63,-198 732.63,-162 829.37,-162 829.37,-198"/>
<text text-anchor="middle" x="781" y="-175.8" font-family="Times,serif" font-size="14.00">HealthModule</text>
</g>
<!-- HealthModule&#45;&gt;AppModule -->
<g id="edge4" class="edge">
<title>HealthModule&#45;&gt;AppModule</title>
<path fill="none" stroke="black" d="M781,-198.07C781,-234.65 781,-314 781,-314 781,-314 519.89,-314 519.89,-314"/>
<polygon fill="black" stroke="black" points="519.89,-310.5 509.89,-314 519.89,-317.5 519.89,-310.5"/>
</g>
<!-- NotificationModule -->
<g id="node5" class="node">
<title>NotificationModule</title>
<polygon fill="#8dd3c7" stroke="black" points="974.7,-198 971.7,-202 950.7,-202 947.7,-198 847.3,-198 847.3,-162 974.7,-162 974.7,-198"/>
<text text-anchor="middle" x="911" y="-175.8" font-family="Times,serif" font-size="14.00">NotificationModule</text>
</g>
<!-- NotificationModule&#45;&gt;AppModule -->
<g id="edge5" class="edge">
<title>NotificationModule&#45;&gt;AppModule</title>
<path fill="none" stroke="black" d="M911,-198.14C911,-236.23 911,-321 911,-321 911,-321 519.68,-321 519.68,-321"/>
<polygon fill="black" stroke="black" points="519.68,-317.5 509.68,-321 519.68,-324.5 519.68,-317.5"/>
</g>
<!-- PostModule -->
<g id="node6" class="node">
<title>PostModule</title>
<polygon fill="#8dd3c7" stroke="black" points="714.67,-198 711.67,-202 690.67,-202 687.67,-198 631.33,-198 631.33,-162 714.67,-162 714.67,-198"/>
<text text-anchor="middle" x="673" y="-175.8" font-family="Times,serif" font-size="14.00">PostModule</text>
</g>
<!-- PostModule&#45;&gt;AppModule -->
<g id="edge6" class="edge">
<title>PostModule&#45;&gt;AppModule</title>
<path fill="none" stroke="black" d="M673,-198.2C673,-233.31 673,-307 673,-307 673,-307 519.98,-307 519.98,-307"/>
<polygon fill="black" stroke="black" points="519.98,-303.5 509.98,-307 519.98,-310.5 519.98,-303.5"/>
</g>
<!-- RoomModule -->
<g id="node7" class="node">
<title>RoomModule</title>
<polygon fill="#8dd3c7" stroke="black" points="408.78,-198 405.78,-202 384.78,-202 381.78,-198 315.22,-198 315.22,-162 408.78,-162 408.78,-198"/>
<text text-anchor="middle" x="362" y="-175.8" font-family="Times,serif" font-size="14.00">RoomModule</text>
</g>
<!-- RoomModule&#45;&gt;AppModule -->
<g id="edge7" class="edge">
<title>RoomModule&#45;&gt;AppModule</title>
<path fill="none" stroke="black" d="M362,-198.11C362,-231.87 362,-301 362,-301 362,-301 416.11,-301 416.11,-301"/>
<polygon fill="black" stroke="black" points="416.11,-304.5 426.11,-301 416.11,-297.5 416.11,-304.5"/>
</g>
<!-- UserModule -->
<g id="node8" class="node">
<title>UserModule</title>
<polygon fill="#8dd3c7" stroke="black" points="296.98,-198 293.98,-202 272.98,-202 269.98,-198 211.02,-198 211.02,-162 296.98,-162 296.98,-198"/>
<text text-anchor="middle" x="254" y="-175.8" font-family="Times,serif" font-size="14.00">UserModule</text>
</g>
<!-- UserModule&#45;&gt;AuthModule -->
<g id="edge10" class="edge">
<title>UserModule&#45;&gt;AuthModule</title>
<path fill="none" stroke="black" d="M268.4,-198.11C268.4,-198.11 268.4,-216.99 268.4,-216.99"/>
<polygon fill="black" stroke="black" points="264.9,-216.99 268.4,-226.99 271.9,-216.99 264.9,-216.99"/>
</g>
<!-- UserModule&#45;&gt;AppModule -->
<g id="edge8" class="edge">
<title>UserModule&#45;&gt;AppModule</title>
<path fill="none" stroke="black" d="M297.24,-180C301.46,-180 304.22,-180 304.22,-180 304.22,-180 304.22,-310 304.22,-310 304.22,-310 416.25,-310 416.25,-310"/>
<polygon fill="black" stroke="black" points="416.25,-313.5 426.25,-310 416.25,-306.5 416.25,-313.5"/>
</g>
<!-- AppService -->
<g id="node10" class="node">
<title>AppService</title>
<ellipse fill="#fdb462" stroke="black" cx="130" cy="-245" rx="56.74" ry="18"/>
<text text-anchor="middle" x="130" y="-240.8" font-family="Times,serif" font-size="14.00">AppService</text>
</g>
<!-- AppService&#45;&gt;AppModule -->
<g id="edge9" class="edge">
<title>AppService&#45;&gt;AppModule</title>
<path fill="none" stroke="black" d="M130,-263.29C130,-285.21 130,-319 130,-319 130,-319 416.22,-319 416.22,-319"/>
<polygon fill="black" stroke="black" points="416.22,-322.5 426.22,-319 416.22,-315.5 416.22,-322.5"/>
</g>
<!-- AuthService -->
<g id="node11" class="node">
<title>AuthService</title>
<ellipse fill="#fdb462" stroke="black" cx="83" cy="-104" rx="59.11" ry="18"/>
<text text-anchor="middle" x="83" y="-99.8" font-family="Times,serif" font-size="14.00">AuthService</text>
</g>
<!-- AuthService&#45;&gt;AuthModule -->
<g id="edge11" class="edge">
<title>AuthService&#45;&gt;AuthModule</title>
<path fill="none" stroke="black" d="M107.84,-120.55C107.84,-151.05 107.84,-213 107.84,-213 107.84,-213 239.81,-213 239.81,-213 239.81,-213 239.81,-216.76 239.81,-216.76"/>
<polygon fill="black" stroke="black" points="236.31,-216.76 239.81,-226.76 243.31,-216.76 236.31,-216.76"/>
</g>
<!-- PrismaService -->
<g id="node12" class="node">
<title>PrismaService</title>
<ellipse fill="#fdb462" stroke="black" cx="362" cy="-104" rx="66.63" ry="18"/>
<text text-anchor="middle" x="362" y="-99.8" font-family="Times,serif" font-size="14.00">PrismaService</text>
</g>
<!-- PrismaService&#45;&gt;AuthModule -->
<g id="edge12" class="edge">
<title>PrismaService&#45;&gt;AuthModule</title>
<path fill="none" stroke="black" d="M309.67,-115.51C309.67,-148.16 309.67,-239 309.67,-239 309.67,-239 308.56,-239 308.56,-239"/>
<polygon fill="black" stroke="black" points="308.6,-235.5 298.6,-239 308.6,-242.5 308.6,-235.5"/>
</g>
<!-- PrismaService&#45;&gt;ChatModule -->
<g id="edge15" class="edge">
<title>PrismaService&#45;&gt;ChatModule</title>
<path fill="none" stroke="black" d="M413.21,-115.71C413.21,-123.39 413.21,-132 413.21,-132 413.21,-132 561.8,-132 561.8,-132 561.8,-132 561.8,-151.85 561.8,-151.85"/>
<polygon fill="black" stroke="black" points="558.3,-151.85 561.8,-161.85 565.3,-151.85 558.3,-151.85"/>
</g>
<!-- PrismaService&#45;&gt;FileModule -->
<g id="edge19" class="edge">
<title>PrismaService&#45;&gt;FileModule</title>
<path fill="none" stroke="black" d="M421.85,-112.13C421.85,-131.74 421.85,-180 421.85,-180 421.85,-180 422.38,-180 422.38,-180"/>
<polygon fill="black" stroke="black" points="417.14,-183.5 427.14,-180 417.14,-176.5 417.14,-183.5"/>
</g>
<!-- PrismaService&#45;&gt;PostModule -->
<g id="edge25" class="edge">
<title>PrismaService&#45;&gt;PostModule</title>
<path fill="none" stroke="black" d="M417.53,-114.23C417.53,-119.97 417.53,-126 417.53,-126 417.53,-126 664.63,-126 664.63,-126 664.63,-126 664.63,-151.72 664.63,-151.72"/>
<polygon fill="black" stroke="black" points="661.13,-151.72 664.63,-161.72 668.13,-151.72 661.13,-151.72"/>
</g>
<!-- PrismaService&#45;&gt;RoomModule -->
<g id="edge27" class="edge">
<title>PrismaService&#45;&gt;RoomModule</title>
<path fill="none" stroke="black" d="M362,-122.01C362,-122.01 362,-151.85 362,-151.85"/>
<polygon fill="black" stroke="black" points="358.5,-151.85 362,-161.85 365.5,-151.85 358.5,-151.85"/>
</g>
<!-- PrismaService&#45;&gt;UserModule -->
<g id="edge30" class="edge">
<title>PrismaService&#45;&gt;UserModule</title>
<path fill="none" stroke="black" d="M294.9,-104C289.58,-104 286.2,-104 286.2,-104 286.2,-104 286.2,-151.99 286.2,-151.99"/>
<polygon fill="black" stroke="black" points="282.7,-151.99 286.2,-161.99 289.7,-151.99 282.7,-151.99"/>
</g>
<!-- UserService -->
<g id="node13" class="node">
<title>UserService</title>
<ellipse fill="#fdb462" stroke="black" cx="219" cy="-104" rx="58.44" ry="18"/>
<text text-anchor="middle" x="219" y="-99.8" font-family="Times,serif" font-size="14.00">UserService</text>
</g>
<!-- UserService&#45;&gt;AuthModule -->
<g id="edge13" class="edge">
<title>UserService&#45;&gt;AuthModule</title>
<path fill="none" stroke="black" d="M198.82,-121.01C198.82,-158.51 198.82,-245 198.82,-245 198.82,-245 201.29,-245 201.29,-245"/>
<polygon fill="black" stroke="black" points="201.29,-248.5 211.29,-245 201.29,-241.5 201.29,-248.5"/>
</g>
<!-- UserService&#45;&gt;ChatModule -->
<g id="edge17" class="edge">
<title>UserService&#45;&gt;ChatModule</title>
<path fill="none" stroke="black" d="M255.15,-118.13C255.15,-126.7 255.15,-136 255.15,-136 255.15,-136 544.4,-136 544.4,-136 544.4,-136 544.4,-151.85 544.4,-151.85"/>
<polygon fill="black" stroke="black" points="540.9,-151.85 544.4,-161.85 547.9,-151.85 540.9,-151.85"/>
</g>
<!-- UserService&#45;&gt;FileModule -->
<g id="edge20" class="edge">
<title>UserService&#45;&gt;FileModule</title>
<path fill="none" stroke="black" d="M244.12,-120.27C244.12,-129.41 244.12,-139 244.12,-139 244.12,-139 449.11,-139 449.11,-139 449.11,-139 449.11,-151.9 449.11,-151.9"/>
<polygon fill="black" stroke="black" points="445.61,-151.9 449.11,-161.9 452.61,-151.9 445.61,-151.9"/>
</g>
<!-- UserService&#45;&gt;PostModule -->
<g id="edge26" class="edge">
<title>UserService&#45;&gt;PostModule</title>
<path fill="none" stroke="black" d="M266.19,-114.75C266.19,-121.52 266.19,-129 266.19,-129 266.19,-129 647.9,-129 647.9,-129 647.9,-129 647.9,-151.88 647.9,-151.88"/>
<polygon fill="black" stroke="black" points="644.4,-151.88 647.9,-161.88 651.4,-151.88 644.4,-151.88"/>
</g>
<!-- UserService&#45;&gt;RoomModule -->
<g id="edge29" class="edge">
<title>UserService&#45;&gt;RoomModule</title>
<path fill="none" stroke="black" d="M233.08,-121.71C233.08,-137.78 233.08,-159 233.08,-159 233.08,-159 338.56,-159 338.56,-159 338.56,-159 338.56,-159.29 338.56,-159.29"/>
<polygon fill="black" stroke="black" points="335.06,-151.92 338.56,-161.92 342.06,-151.92 335.06,-151.92"/>
</g>
<!-- UserService&#45;&gt;UserModule -->
<g id="edge31" class="edge">
<title>UserService&#45;&gt;UserModule</title>
<path fill="none" stroke="black" d="M222.05,-122.01C222.05,-122.01 222.05,-151.85 222.05,-151.85"/>
<polygon fill="black" stroke="black" points="218.55,-151.85 222.05,-161.85 225.55,-151.85 218.55,-151.85"/>
</g>
<!-- ChatService -->
<g id="node14" class="node">
<title>ChatService</title>
<ellipse fill="#fdb462" stroke="black" cx="673" cy="-104" rx="58.46" ry="18"/>
<text text-anchor="middle" x="673" y="-99.8" font-family="Times,serif" font-size="14.00">ChatService</text>
</g>
<!-- ChatService&#45;&gt;ChatModule -->
<g id="edge14" class="edge">
<title>ChatService&#45;&gt;ChatModule</title>
<path fill="none" stroke="black" d="M614.57,-104C608.67,-104 604.8,-104 604.8,-104 604.8,-104 604.8,-151.99 604.8,-151.99"/>
<polygon fill="black" stroke="black" points="601.3,-151.99 604.8,-161.99 608.3,-151.99 601.3,-151.99"/>
</g>
<!-- RoomService -->
<g id="node15" class="node">
<title>RoomService</title>
<ellipse fill="#fdb462" stroke="black" cx="533" cy="-104" rx="63.7" ry="18"/>
<text text-anchor="middle" x="533" y="-99.8" font-family="Times,serif" font-size="14.00">RoomService</text>
</g>
<!-- RoomService&#45;&gt;ChatModule -->
<g id="edge16" class="edge">
<title>RoomService&#45;&gt;ChatModule</title>
<path fill="none" stroke="black" d="M579.2,-116.55C579.2,-116.55 579.2,-151.74 579.2,-151.74"/>
<polygon fill="black" stroke="black" points="575.7,-151.74 579.2,-161.74 582.7,-151.74 575.7,-151.74"/>
</g>
<!-- RoomService&#45;&gt;RoomModule -->
<g id="edge28" class="edge">
<title>RoomService&#45;&gt;RoomModule</title>
<path fill="none" stroke="black" d="M482.49,-115.2C482.49,-126.4 482.49,-142 482.49,-142 482.49,-142 385.44,-142 385.44,-142 385.44,-142 385.44,-151.89 385.44,-151.89"/>
<polygon fill="black" stroke="black" points="381.94,-151.89 385.44,-161.89 388.94,-151.89 381.94,-151.89"/>
</g>
<!-- FileService -->
<g id="node16" class="node">
<title>FileService</title>
<ellipse fill="#fdb462" stroke="black" cx="826" cy="-104" rx="55.03" ry="18"/>
<text text-anchor="middle" x="826" y="-99.8" font-family="Times,serif" font-size="14.00">FileService</text>
</g>
<!-- FileService&#45;&gt;FileModule -->
<g id="edge18" class="edge">
<title>FileService&#45;&gt;FileModule</title>
<path fill="none" stroke="black" d="M785.6,-116.37C785.6,-128.76 785.6,-146 785.6,-146 785.6,-146 495.58,-146 495.58,-146 495.58,-146 495.58,-151.81 495.58,-151.81"/>
<polygon fill="black" stroke="black" points="492.08,-151.81 495.58,-161.81 499.08,-151.81 492.08,-151.81"/>
</g>
<!-- FileService&#45;&gt;PostModule -->
<g id="edge23" class="edge">
<title>FileService&#45;&gt;PostModule</title>
<path fill="none" stroke="black" d="M800.21,-119.99C800.21,-132.93 800.21,-149 800.21,-149 800.21,-149 681.37,-149 681.37,-149 681.37,-149 681.37,-151.97 681.37,-151.97"/>
<polygon fill="black" stroke="black" points="677.87,-151.97 681.37,-161.97 684.87,-151.97 677.87,-151.97"/>
</g>
<!-- HealthService -->
<g id="node17" class="node">
<title>HealthService</title>
<ellipse fill="#fdb462" stroke="black" cx="987" cy="-104" rx="65.97" ry="18"/>
<text text-anchor="middle" x="987" y="-99.8" font-family="Times,serif" font-size="14.00">HealthService</text>
</g>
<!-- HealthService&#45;&gt;HealthModule -->
<g id="edge21" class="edge">
<title>HealthService&#45;&gt;HealthModule</title>
<path fill="none" stroke="black" d="M947.93,-118.48C947.93,-133.87 947.93,-156 947.93,-156 947.93,-156 814.82,-156 814.82,-156 814.82,-156 814.82,-156.58 814.82,-156.58"/>
<polygon fill="black" stroke="black" points="811.32,-151.81 814.82,-161.81 818.32,-151.81 811.32,-151.81"/>
</g>
<!-- NotificationService -->
<g id="node18" class="node">
<title>NotificationService</title>
<ellipse fill="#fdb462" stroke="black" cx="1180" cy="-104" rx="86.81" ry="18"/>
<text text-anchor="middle" x="1180" y="-99.8" font-family="Times,serif" font-size="14.00">NotificationService</text>
</g>
<!-- NotificationService&#45;&gt;NotificationModule -->
<g id="edge22" class="edge">
<title>NotificationService&#45;&gt;NotificationModule</title>
<path fill="none" stroke="black" d="M1180,-122.01C1180,-144.49 1180,-180 1180,-180 1180,-180 984.75,-180 984.75,-180"/>
<polygon fill="black" stroke="black" points="984.75,-176.5 974.75,-180 984.75,-183.5 984.75,-176.5"/>
</g>
<!-- PostService -->
<g id="node19" class="node">
<title>PostService</title>
<ellipse fill="#fdb462" stroke="black" cx="1364" cy="-104" rx="56.76" ry="18"/>
<text text-anchor="middle" x="1364" y="-99.8" font-family="Times,serif" font-size="14.00">PostService</text>
</g>
<!-- PostService&#45;&gt;PostModule -->
<g id="edge24" class="edge">
<title>PostService&#45;&gt;PostModule</title>
<path fill="none" stroke="black" d="M1364,-122.15C1364,-135.74 1364,-152 1364,-152 1364,-152 698.1,-152 698.1,-152 698.1,-152 698.1,-152.98 698.1,-152.98"/>
<polygon fill="black" stroke="black" points="694.6,-151.79 698.1,-161.79 701.6,-151.79 694.6,-151.79"/>
</g>
</g>
</svg>
